<svg id="auction-svgrepo-com" xmlns="http://www.w3.org/2000/svg" width="50.77" height="50.768" viewBox="0 0 50.77 50.768">
  <g id="Group_15" data-name="Group 15">
    <path id="Path_2" data-name="Path 2" d="M41.742,31.9a2.906,2.906,0,0,0,.228,3.885l1.409,1.306a2.949,2.949,0,0,0,4.1,0l6.155-6.1a3.028,3.028,0,0,0,0-4.145l-1.409-1.306A2.988,2.988,0,0,0,48.27,25.4l-8.382-8.3a3,3,0,0,0-.166-3.958l-1.409-1.306a2.987,2.987,0,0,0-4.1,0l-6.155,6.1a2.9,2.9,0,0,0,0,4.145l1.409,1.306a2.907,2.907,0,0,0,3.834.228l1.544,1.513L11,48.81l5.181,5.232L40.1,30.294,41.742,31.9Zm7.9-4.942a.792.792,0,0,1,1.192.114l1.409,1.306a.731.731,0,0,1,0,.984l-6.155,6.1a.838.838,0,0,1-1.192,0l-1.409-1.306a.742.742,0,0,1,0-1.088l6.155-6.113Zm-2.818-.114-3.647,3.626-8.289-8.258L38.551,18.5ZM32.168,21.767a.838.838,0,0,1-1.192,0l-1.409-1.306a.742.742,0,0,1,0-1.088l6.155-6.1a.792.792,0,0,1,1.192.114l1.409,1.306a.731.731,0,0,1,0,.984ZM16.295,51,14.026,48.81l22.318-22.2,2.248,2.207Z" transform="translate(-11 -11.025)" fill="#2672e4"/>
    <path id="Path_3" data-name="Path 3" d="M248.79,374.182V368.4H229.238v5.782H224.7v7.957h28.628v-7.957ZM231.4,370.472h15.335v3.709H231.4Zm19.873,9.481H226.866v-3.6h24.411Z" transform="translate(-202.558 -331.371)" fill="#2672e4"/>
  </g>
</svg>
