<svg id="write-svgrepo-com" xmlns="http://www.w3.org/2000/svg" width="59.997" height="57.984" viewBox="0 0 59.997 57.984">
  <g id="Group_18" data-name="Group 18">
    <path id="Path_11" data-name="Path 11" d="M37.625,33.42c-.07.131-.211.26-.211.38V45.939A3.624,3.624,0,0,1,33.73,49.5H8.345a3.605,3.605,0,0,1-3.667-3.561V13.432a3.708,3.708,0,0,1,3.667-3.68h25.38a3.62,3.62,0,0,1,1.975.613l4.076-4.514A4.737,4.737,0,0,0,37.331,5.2H4.545A4.53,4.53,0,0,0,0,9.759V49.544a4.737,4.737,0,0,0,4.738,4.767H37.325a4.756,4.756,0,0,0,4.763-4.767V28.524l-3.931,4.4A2.937,2.937,0,0,1,37.625,33.42Z" transform="translate(0 3.673)" fill="#fff"/>
    <path id="Path_12" data-name="Path 12" d="M6.754,10.881a2.274,2.274,0,1,0,0,4.546H22.611l4.151-4.546Z" transform="translate(3.969 8.777)" fill="#fff"/>
    <path id="Path_13" data-name="Path 13" d="M20,15.179c.023-.08.049-.131.08-.262H6.754a2.336,2.336,0,1,0,0,4.672h11.98Z" transform="translate(3.969 12.405)" fill="#fff"/>
    <path id="Path_14" data-name="Path 14" d="M14.833,19.022H6.752a2.335,2.335,0,1,0,0,4.67h8.083a2.35,2.35,0,0,0,2.218-1.61,3.982,3.982,0,0,1,.122-.752,2.319,2.319,0,0,0-2-2.288A2.9,2.9,0,0,0,14.833,19.022Z" transform="translate(3.971 16.096)" fill="#fff"/>
    <path id="Path_15" data-name="Path 15" d="M30.669,5.946,15.656,22.68,14.64,23.813,22.764,31.1l1.016-1.132L38.787,13.235,40,11.889,31.875,4.6Zm-.826,7.568L20.161,24.3a.684.684,0,0,1-.969.053l-.482-.431a.688.688,0,0,1-.047-.967l9.682-10.791a.673.673,0,0,1,.475-.226.7.7,0,0,1,.494.173l.475.433A.687.687,0,0,1,29.842,13.514Zm2.809-5.126.479.429a.683.683,0,0,1,.053.961s0,0,0,0l-.836.938a.728.728,0,0,1-.473.228.685.685,0,0,1-.494-.175l-.482-.429a.686.686,0,0,1-.224-.473.654.654,0,0,1,.175-.494l.839-.938A.688.688,0,0,1,32.651,8.389Z" transform="translate(13.163 3.129)" fill="#fff"/>
    <path id="Path_16" data-name="Path 16" d="M24.869,4.372l-.741.82,8.121,7.291.743-.826,1.259-1.4L26.126,2.967Z" transform="translate(21.694 1.661)" fill="#fff"/>
    <path id="Path_17" data-name="Path 17" d="M36.223,5.264,31.616,1.134a2.358,2.358,0,0,0-3.331.18L25.567,4.341l8.121,7.287L36.405,8.6A2.362,2.362,0,0,0,36.223,5.264Zm-2.7,3.327L28.6,4.176l1.422-1.584,4.921,4.415Z" transform="translate(22.988 -0.53)" fill="#fff"/>
    <path id="Path_18" data-name="Path 18" d="M14.255,26.4l9.338-3.827-8.117-7.283-2.8,9.7A1.174,1.174,0,0,0,14.255,26.4Zm1.96-8.521,4.719,4.233-3.669,1.5-2.148-1.926Z" transform="translate(11.359 12.74)" fill="#fff"/>
  </g>
</svg>
