<svg xmlns="http://www.w3.org/2000/svg" width="48.903" height="37.865" viewBox="0 0 48.903 37.865">
  <g id="mail" transform="translate(-4.14 -7.268)">
    <path id="Path_651" data-name="Path 651" d="M51.42,7.268H5.763A1.625,1.625,0,0,0,4.14,8.893V12.16a.556.556,0,0,0,.3.393l24,13.708a.407.407,0,0,0,.408,0L52.115,12.566c.131-.072.478-.266.609-.355.157-.108.319-.2.319-.4V8.893A1.625,1.625,0,0,0,51.42,7.27Z" transform="translate(0 0)" fill="#2672e4"/>
    <path id="Path_652" data-name="Path 652" d="M37.714,12.856a.409.409,0,0,0-.409,0l-13.17,7.748a.4.4,0,0,0-.092.626l13.171,14.2a.406.406,0,0,0,.7-.277V13.207a.406.406,0,0,0-.2-.353Z" transform="translate(15.126 4.229)" fill="#2672e4"/>
    <path id="Path_653" data-name="Path 653" d="M35.2,18.757a.4.4,0,0,0-.5-.074L29.418,21.79a2.059,2.059,0,0,1-2.038.014l-4.645-2.653a.406.406,0,0,0-.476.055L4.616,35.567a.406.406,0,0,0,.072.647,1.581,1.581,0,0,0,.808.238H50.686a.407.407,0,0,0,.3-.683Z" transform="translate(0.265 8.68)" fill="#2672e4"/>
    <path id="Path_654" data-name="Path 654" d="M18.642,21.58a.406.406,0,0,0-.072-.649L4.745,13.036a.406.406,0,0,0-.605.353V34.105a.4.4,0,0,0,.681.3L18.642,21.58Z" transform="translate(0 4.368)" fill="#2672e4"/>
  </g>
</svg>
