<svg xmlns="http://www.w3.org/2000/svg" width="43.932" height="51.798" viewBox="0 0 43.932 51.798">
  <path id="test-quiz-svgrepo-com" d="M68.869,0a1.156,1.156,0,0,0-.94.528l-3.35,5.026H53.168a1.156,1.156,0,0,0-1.156,1.156V18.272a1.156,1.156,0,0,0,1.156,1.156H64.729a1.156,1.156,0,0,0,1.156-1.156V9.15l-2.312,3.468v4.5H54.324V7.867h8.713l-3.252,4.877L58.364,9.9a1.156,1.156,0,0,0-2.081,1.009l.012.025,2.312,4.624a1.156,1.156,0,0,0,2,.125L69.853,1.811A1.156,1.156,0,0,0,68.869,0ZM73.978,10.18a1.156,1.156,0,0,0-1.156,1.156v2.312A1.156,1.156,0,0,0,73.978,14.8h20.81a1.156,1.156,0,0,0,1.156-1.156V11.336a1.156,1.156,0,0,0-1.156-1.156ZM53.168,21.749A1.156,1.156,0,0,0,52.012,22.9V34.466a1.156,1.156,0,0,0,1.156,1.156H64.729a1.156,1.156,0,0,0,1.156-1.156V22.9a1.156,1.156,0,0,0-1.156-1.156Zm1.156,2.312h9.249v9.249H54.324Zm19.654,2.3a1.156,1.156,0,0,0-1.156,1.156v2.312a1.156,1.156,0,0,0,1.156,1.156h20.81a1.156,1.156,0,0,0,1.156-1.156V27.52a1.156,1.156,0,0,0-1.156-1.156ZM53.168,37.925a1.156,1.156,0,0,0-1.156,1.156V50.642A1.156,1.156,0,0,0,53.168,51.8H64.729a1.156,1.156,0,0,0,1.156-1.156V39.081a1.156,1.156,0,0,0-1.156-1.156Zm1.156,2.312h9.249v9.249H54.324Zm19.654,2.32a1.156,1.156,0,0,0-1.156,1.156v2.312a1.156,1.156,0,0,0,1.156,1.156h20.81a1.156,1.156,0,0,0,1.156-1.156V43.714a1.156,1.156,0,0,0-1.156-1.156Z" transform="translate(-52.012 0)" fill="#fff"/>
</svg>
