<svg id="Group_70" data-name="Group 70" xmlns="http://www.w3.org/2000/svg" width="58.852" height="66.058" viewBox="0 0 58.852 66.058">
  <g id="Group_69" data-name="Group 69" transform="translate(0)">
    <path id="Path_25" data-name="Path 25" d="M94.79,82.346a12.444,12.444,0,1,0,12.445,12.444A12.458,12.458,0,0,0,94.79,82.346Zm0,21.57a9.126,9.126,0,1,1,9.126-9.126A9.136,9.136,0,0,1,94.79,103.916Z" transform="translate(-65.363 -61.761)" fill="#fff"/>
    <path id="Path_26" data-name="Path 26" d="M66.363,39.882c0-.032.019-.06.019-.092V26.172a6.6,6.6,0,1,0-6.429-11.045c-1.924-1.117-3.991-2.337-6.015-3.532-2.046-1.209-4.029-2.379-5.76-3.382a6.605,6.605,0,1,0-12.766.129L23.594,15.119a6.6,6.6,0,1,0-6.421,11.052v13.6a1.132,1.132,0,0,0,.023.113,6.6,6.6,0,1,0,6.347,11.1c1.991,1.151,4.152,2.408,6.27,3.639,1.964,1.142,3.87,2.25,5.562,3.229a6.606,6.606,0,1,0,12.779-.095c1.95-1.123,4.11-2.362,6.223-3.572,2.013-1.154,3.954-2.266,5.612-3.222a6.6,6.6,0,1,0,6.373-11.083ZM64.6,15.614a4.2,4.2,0,1,1-4.2,4.2A4.209,4.209,0,0,1,64.6,15.614ZM41.778,2.4a4.2,4.2,0,1,1-4.2,4.2A4.209,4.209,0,0,1,41.778,2.4ZM14.754,19.818a4.2,4.2,0,1,1,4.2,4.2A4.209,4.209,0,0,1,14.754,19.818Zm4.2,30.627a4.2,4.2,0,1,1,4.2-4.2A4.209,4.209,0,0,1,18.958,50.445Zm22.82,13.212a4.2,4.2,0,1,1,4.2-4.2A4.209,4.209,0,0,1,41.778,63.657ZM57.992,46.241a6.559,6.559,0,0,0,.608,2.752c-1.615.931-3.482,2-5.417,3.109-2.055,1.178-4.155,2.381-6.063,3.48a6.586,6.586,0,0,0-10.741.076c-1.641-.95-3.473-2.015-5.358-3.111-2.05-1.193-4.139-2.407-6.078-3.529a6.588,6.588,0,0,0-5.367-9.353V26.392a6.59,6.59,0,0,0,5.4-9.293l11.489-6.59a6.585,6.585,0,0,0,10.711-.1c1.68.974,3.581,2.1,5.544,3.256s3.982,2.351,5.864,3.445a6.591,6.591,0,0,0,5.4,9.284V39.667A6.613,6.613,0,0,0,57.992,46.241Zm6.607,4.2a4.2,4.2,0,1,1,4.2-4.2A4.209,4.209,0,0,1,64.6,50.445Z" transform="translate(-12.352)" fill="#fff"/>
  </g>
</svg>
