<svg xmlns="http://www.w3.org/2000/svg" width="35.583" height="35.5" viewBox="0 0 35.583 35.5">
  <path id="collection-pdf" d="M32,.25a3.459,3.459,0,0,1,2.542,1.042A3.358,3.358,0,0,1,35.583,3.75V25.083A3.558,3.558,0,0,1,32,28.667H10.667a3.558,3.558,0,0,1-3.584-3.584V3.75A3.36,3.36,0,0,1,8.125,1.292,3.464,3.464,0,0,1,10.667.25ZM16.917,13.583V11.75A2.7,2.7,0,0,0,14.25,9.083H9.75V19.75h2.667v-3.5H14.25a2.7,2.7,0,0,0,2.667-2.667Zm8.833,3.5V11.75A2.635,2.635,0,0,0,25,9.875a2.524,2.524,0,0,0-1.917-.792H18.666V19.75h4.417a2.568,2.568,0,0,0,2.667-2.667Zm7.167-5.333V9.083H27.584V19.75h2.667v-3.5h2.667V13.583H30.251V11.75h2.667Zm-20.5,1.833V11.75H14.25v1.833ZM3.583,7.333V32.25H28.416v3.5H3.583a3.459,3.459,0,0,1-2.542-1.042A3.358,3.358,0,0,1,0,32.25V7.333Zm17.75,9.75V11.75h1.75v5.333Z" transform="translate(0 -0.25)" fill="#2672e4"/>
</svg>
