<svg xmlns="http://www.w3.org/2000/svg" width="14.469" height="16.802" viewBox="0 0 14.469 16.802">
  <g id="weather" transform="translate(-0.477 0.002)">
    <path id="Path_640" data-name="Path 640" d="M59.512,53.539a3.875,3.875,0,1,1-5.48,0,3.875,3.875,0,0,1,5.48,0Zm0,0" transform="translate(-50.505 -50.492)" fill="#fabe02"/>
    <path id="Path_641" data-name="Path 641" d="M84.639,141.366a3.857,3.857,0,0,0,1.092-2.166,3.878,3.878,0,0,0-6.755,1.969c.059.067.119.133.182.2a3.875,3.875,0,0,0,5.48,0Zm0,0" transform="translate(-75.632 -132.839)" fill="#f59a1d"/>
    <path id="Path_642" data-name="Path 642" d="M148.751,53.548a3.868,3.868,0,0,0-3.232-1.1,3.874,3.874,0,0,1,0,7.686,3.874,3.874,0,0,0,3.232-6.583Zm0,0" transform="translate(-139.744 -50.501)" fill="#f59a1d"/>
    <path id="Path_643" data-name="Path 643" d="M2.882,2.658A.255.255,0,0,1,2.7,2.583l-.666-.666A.256.256,0,1,1,2.4,1.556l.666.666a.256.256,0,0,1-.181.436ZM1.89,4.615A.256.256,0,0,0,1.709,4.3L.8,4.058a.256.256,0,0,0-.132.495l.91.244a.255.255,0,0,0,.313-.181ZM.8,7.517l.91-.244a.256.256,0,0,0-.132-.494l-.909.244A.256.256,0,0,0,.8,7.517ZM7.753,1.229,8,.32A.256.256,0,0,0,7.5.187l-.244.91a.256.256,0,1,0,.494.132Zm-2.658.181A.256.256,0,0,0,5.275,1.1L5.031.187A.256.256,0,1,0,4.537.32l.244.91a.255.255,0,0,0,.313.181Zm5.4,8.609a.256.256,0,0,0,0-.362l-.666-.666a.256.256,0,0,0-.362.362l.666.666A.256.256,0,0,0,10.5,10.019ZM9.833,2.583l.666-.666a.256.256,0,1,0-.362-.362l-.666.666a.256.256,0,0,0,.362.362ZM2.4,10.019l.666-.666A.256.256,0,0,0,2.7,8.992l-.666.666a.256.256,0,0,0,.362.362Zm9.651-2.683a.256.256,0,0,0-.181-.313l-.91-.244a.256.256,0,1,0-.132.494l.91.244a.255.255,0,0,0,.313-.181ZM10.957,4.8l.91-.243a.256.256,0,1,0-.132-.494l-.91.244a.256.256,0,1,0,.132.494ZM5.031,11.388l.244-.91a.256.256,0,0,0-.494-.132l-.244.91a.256.256,0,1,0,.494.132Zm2.785.181A.256.256,0,0,0,8,11.255l-.244-.91a.256.256,0,0,0-.494.132l.244.91a.255.255,0,0,0,.313.181Zm0,0" transform="translate(0 0)" fill="#fabe02"/>
    <path id="Path_644" data-name="Path 644" d="M15.311,160.988a2.62,2.62,0,0,0-1.377.392,3.882,3.882,0,0,0-7.6.524,2.21,2.21,0,1,0-.526,4.357h9.507a2.636,2.636,0,0,0,0-5.273Zm0,0" transform="translate(-3.002 -152.709)" fill="#26a3b9"/>
    <path id="Path_645" data-name="Path 645" d="M293.9,226.707a2.606,2.606,0,0,0-.579.066,2.635,2.635,0,0,1-.578,5.207H293.9a2.636,2.636,0,0,0,0-5.273Zm0,0" transform="translate(-281.589 -218.428)" fill="#168aa5"/>
    <path id="Path_646" data-name="Path 646" d="M172.178,160.979a3.877,3.877,0,0,0-4.209-2.452,3.985,3.985,0,0,1,3.131,2.744,2.035,2.035,0,0,0,.217,1.93,2.288,2.288,0,0,1,.989-1.835,3.707,3.707,0,0,0-.119-.369.139.139,0,0,0-.009-.017Zm0,0" transform="translate(-161.373 -152.694)" fill="#168aa5"/>
    <path id="Path_647" data-name="Path 647" d="M103.977,394.934a.813.813,0,0,1-1.625,0,5.348,5.348,0,0,1,.813-1.622A5.348,5.348,0,0,1,103.977,394.934Zm0,0" transform="translate(-98.153 -378.947)" fill="#26a3b9"/>
    <path id="Path_648" data-name="Path 648" d="M240.977,394.934a.812.812,0,0,1-1.625,0,5.348,5.348,0,0,1,.813-1.622A5.348,5.348,0,0,1,240.977,394.934Zm0,0" transform="translate(-230.149 -378.947)" fill="#26a3b9"/>
    <g id="Group_841" data-name="Group 841" transform="translate(4.765 14.365)">
      <path id="Path_649" data-name="Path 649" d="M118.1,393.293s-.109.157-.246.378a3.52,3.52,0,0,1,.566,1.245.813.813,0,0,1-.566.775.812.812,0,0,0,1.059-.775A5.354,5.354,0,0,0,118.1,393.293Zm0,0" transform="translate(-117.856 -393.293)" fill="#168aa5"/>
      <path id="Path_650" data-name="Path 650" d="M255.1,393.293s-.109.157-.246.378a3.521,3.521,0,0,1,.566,1.245.813.813,0,0,1-.566.775.812.812,0,0,0,1.059-.775A5.354,5.354,0,0,0,255.1,393.293Zm0,0" transform="translate(-249.851 -393.293)" fill="#168aa5"/>
    </g>
  </g>
</svg>
